<svg xmlns="http://www.w3.org/2000/svg" width="372" height="69" viewBox="0 0 372 69" fill="none"><path d="M36.17 32.76C37.01 39.2 38.77 44.96 43.53 49.35C46.8 52.36 50.81 53.54 55.17 53.65C56.22 53.68 57.27 53.65 58.38 53.65C58.44 54 58.52 54.26 58.52 54.52C58.52 58.71 58.52 62.91 58.52 67.1C58.52 67.64 58.52 68.08 57.75 68.1C52.17 68.26 46.8 67.4 41.85 64.7C35.15 61.04 31.49 55.22 30.19 47.82C29.89 46.09 29.82 44.32 29.65 42.56C29.6 42.04 29.57 41.51 29.53 40.98C29.4 40.97 29.27 40.95 29.14 40.94C29.06 41.33 28.93 41.72 28.92 42.12C28.75 46.87 27.92 51.47 25.63 55.7C21.98 62.42 16.09 65.97 8.78999 67.48C5.90999 68.08 2.98999 68.22 -0.0100098 68.02V53.65C0.90999 53.65 1.82999 53.65 2.74999 53.65C5.31999 53.67 7.81999 53.27 10.22 52.31C14.44 50.63 17.33 47.56 19.32 43.56C20.98 40.22 21.83 36.66 22.28 32.8H0.00999023V20.05H22.44V12.83H-9.76585e-06V0.11C0.40999 0.08 0.81999 0.03 1.22999 0.03C19.88 0.02 38.52 0.03 57.17 0C58.23 0 58.59 0.25 58.56 1.36C58.49 4.73 58.53 8.1 58.53 11.47V12.73H36.09C36.02 13.12 35.93 13.43 35.92 13.75C35.9 15.47 35.96 17.2 35.89 18.92C35.85 19.85 36.22 20.02 37.05 20.02C43.71 19.99 50.37 20.03 57.03 19.98C58.18 19.98 58.59 20.22 58.55 21.46C58.46 24.79 58.48 28.12 58.55 31.45C58.57 32.46 58.31 32.79 57.25 32.78C50.75 32.73 44.24 32.76 37.74 32.76C37.28 32.76 36.82 32.76 36.16 32.76H36.17Z" fill="#6DB631"></path><path d="M72.49 19.91C75.06 17.61 77.79 15.95 80.71 14.61C88.07 11.23 95.73 10.32 103.63 12.06C113.44 14.21 119.36 20.42 121.54 30.11C122.24 33.22 122.52 36.47 122.58 39.66C122.72 48.16 122.61 56.67 122.65 65.18C122.65 66.33 122.3 66.62 121.2 66.6C117.6 66.53 113.99 66.55 110.39 66.6C109.47 66.61 109.15 66.35 109.19 65.41C109.26 63.69 109.21 61.97 109.21 59.98C108.67 60.34 108.3 60.57 107.94 60.82C102.25 64.79 96.09 67.52 89.08 68.02C85.48 68.28 81.94 67.92 78.58 66.55C69.95 63.03 67.17 56.18 70.66 47.48C72.31 43.36 75.5 40.62 79.36 38.62C84.92 35.74 90.94 34.58 97.09 34.02C100.28 33.73 103.5 33.68 106.71 33.52C107.17 33.5 107.64 33.47 108.1 33.45C107.98 28.73 103.96 24.22 98.99 23.16C94.07 22.11 89.5 23.37 85.12 25.47C83.01 26.48 81.02 27.73 78.77 28.98C76.75 26.05 74.66 23.04 72.5 19.91H72.49ZM109.2 43.59C108.81 43.53 108.58 43.48 108.35 43.47C103.21 43.23 98.1 43.38 93.04 44.4C89.84 45.04 86.72 45.96 84.1 48.04C80.38 50.99 80.98 55 85.38 56.77C87.7 57.7 90.13 57.77 92.55 57.4C98.84 56.43 104.02 53.23 108.74 49.15C108.97 48.95 109.17 48.57 109.18 48.27C109.22 46.75 109.2 45.23 109.2 43.6V43.59Z" fill="#6DB631"></path><path d="M197.1 40.04C197.47 40.1 197.84 40.19 198.21 40.2C202 40.3 205.7 40.84 209.25 42.23C216.91 45.23 221.36 51.02 223.33 58.82C223.95 61.26 224.15 63.81 224.56 66.45C223.92 66.51 223.58 66.56 223.24 66.56C219.17 66.56 215.09 66.56 211.02 66.56C210.4 66.56 209.88 66.6 209.86 65.7C209.67 55.72 203.2 50.08 194.81 47.67C191.49 46.71 188.08 46.23 184.45 46.21V66.48H170.93V45.85H157.72V33.89H170.94C170.94 33.21 170.94 32.75 170.94 32.28C170.94 26.36 170.96 20.44 170.92 14.52C170.92 13.49 171.13 13.08 172.27 13.1C175.87 13.17 179.48 13.13 183.08 13.13C183.47 13.13 183.85 13.13 184.35 13.13V33.35C184.63 33.42 184.81 33.51 184.99 33.5C190.37 33.26 195.59 32.35 200.37 29.72C206.35 26.43 209.54 21.35 209.83 14.52C209.88 13.34 210.21 13.02 211.38 13.04C215.33 13.12 219.29 13.07 223.25 13.07C223.8 13.07 224.39 12.96 224.35 13.85C223.87 22.79 221.02 30.51 213.09 35.54C209.28 37.96 204.99 39 200.52 39.35C199.4 39.44 198.29 39.51 197.17 39.58C197.16 39.73 197.14 39.87 197.13 40.02L197.1 40.04Z" fill="#6DB631"></path><path d="M229.96 58.39C232.46 54.76 234.76 51.42 237.11 48.01C238.21 48.61 239.22 49.18 240.26 49.71C247.21 53.23 254.45 55.76 262.31 56.1C264.67 56.2 267.01 56.04 269.24 55.14C270.8 54.51 272.09 53.56 272.27 51.73C272.45 49.88 271.52 48.45 269.97 47.69C267.88 46.66 265.69 45.74 263.45 45.11C258.36 43.69 253.19 42.58 248.1 41.17C244.69 40.23 241.48 38.76 238.65 36.57C234.24 33.15 232.29 27.74 233.74 22.94C234.74 19.63 237.07 17.42 239.92 15.69C244.2 13.09 248.93 11.91 253.85 11.48C262.56 10.72 270.96 11.95 278.81 15.99C280.87 17.05 282.78 18.42 284.88 19.72C282.62 23 280.54 26.02 278.51 28.97C276.27 27.75 274.2 26.48 272.02 25.46C266.57 22.93 260.87 21.49 254.82 22.21C253.37 22.38 251.91 22.84 250.55 23.4C249.05 24.03 247.91 25.15 247.87 26.94C247.83 28.79 248.94 30.02 250.51 30.62C252.66 31.43 254.88 32.1 257.13 32.59C262.18 33.69 267.3 34.43 272.3 35.72C275.02 36.42 277.66 37.7 280.1 39.13C287.51 43.48 289.39 55.11 281.85 61.61C278.01 64.92 273.51 66.68 268.6 67.49C258.54 69.15 248.95 67.24 239.72 63.26C236.46 61.85 233.35 60.11 229.97 58.41L229.96 58.39Z" fill="#6DB631"></path><path d="M334.97 13.29H348.33C348.36 13.73 348.4 14.15 348.4 14.56C348.4 31.45 348.4 48.35 348.42 65.24C348.42 66.27 348.22 66.68 347.08 66.65C343.48 66.58 339.87 66.62 336.27 66.62C335.89 66.62 335.51 66.59 334.99 66.57V60.04C334.43 60.41 334.09 60.62 333.75 60.85C329.16 64.01 324.3 66.58 318.77 67.63C313.02 68.73 307.57 68.15 302.96 64.12C299.37 60.99 297.34 56.86 296.4 52.3C295.66 48.71 295.14 45.02 295.07 41.37C294.88 32.36 295.01 23.34 295.01 14.32C295.01 14.01 295.05 13.71 295.08 13.32H308.37C308.39 13.79 308.44 14.28 308.44 14.77C308.44 23.35 308.36 31.94 308.49 40.52C308.54 43.63 308.8 46.81 309.51 49.82C310.73 54.97 314 56.78 319.2 55.73C323.16 54.93 326.76 53.2 330.33 51.38C331.44 50.81 332.5 50.11 333.64 49.6C334.67 49.14 335 48.49 335 47.34C334.95 36.52 334.97 25.7 334.97 14.88V13.26V13.29Z" fill="#6DB631"></path><path d="M149.13 66.51H135.9V13.21H149.13V66.51Z" fill="#6DB631"></path><path d="M363.12 7.05C367.82 7.12 371.32 10.78 371.26 15.56C371.2 20.26 367.57 23.86 362.96 23.8C358.17 23.73 354.79 20.08 354.86 15.05C354.93 10.53 358.59 6.99 363.12 7.06V7.05ZM357.18 15.45C357.18 19.16 359.57 21.67 363.06 21.65C366.54 21.63 368.92 19.08 368.91 15.39C368.89 11.7 366.49 9.17 363.01 9.18C359.53 9.18 357.17 11.72 357.18 15.44V15.45Z" fill="#6DB631"></path><path d="M359.66 11.35C361.34 11.35 362.86 11.27 364.37 11.38C365.45 11.45 366.29 12.06 366.61 13.17C366.93 14.29 366.68 15.26 365.76 16.02C365.64 16.12 365.48 16.17 365.33 16.24C365.91 17.36 366.4 18.31 366.91 19.3C364.73 19.75 364.56 19.68 363.68 17.93C363.38 17.34 363.12 16.76 362.2 17.16C362.18 17.46 362.1 17.81 362.15 18.14C362.32 19.27 361.8 19.55 360.76 19.51C359.98 19.48 359.64 19.29 359.66 18.45C359.7 16.11 359.68 13.77 359.68 11.38L359.66 11.35ZM362.05 15.15C363.11 15.28 363.92 15.32 364.06 14.25C364.16 13.44 363.56 13.1 362.87 13.16C361.39 13.3 362.48 14.43 362.05 15.15Z" fill="#6DB631"></path></svg>